# xmcd
# Track frame offsets:
# 150
# 27473
# 53136
# 81464
# 103207
# 119480
# 137589
# 150799
# 168116
# 188457
# 213902
#
# Disc length: 3064 seconds
# Revision: 0
# Processed by: cddbd v1.5.2PL0 Copyright (c) Steve Scherf et al.
# Submitted via: VisiTrax 2.11.1.266 - For more info visit www.synapsa.com
#
DISCID=890bf60b
DTITLE=Michael Martin Murphey - Lone Cowboy - Live and Solo
DYEAR=2009
DGENRE=Cowboy
TTITLE0=Lone Cowboy - Carolina In The Pines
TTITLE1=Partner To The Wind - Cool Water
TTITLE2=Little Joe The Wranger - Oh Bury Me Not On The Lone Prairie
TTITLE3=Long And Lonesome Road To Dalhart
TTITLE4=Wildfire
TTITLE5=When The Work's All Done This Fall
TTITLE6=What Am I Doing Here?
TTITLE7=Vanishing Breed
TTITLE8=Cherokee Fiddle
TTITLE9=Close To The Land
TTITLE10=Summer Ranges
EXTD=
EXTT0=
EXTT1=
EXTT2=
EXTT3=
EXTT4=
EXTT5=
EXTT6=
EXTT7=
EXTT8=
EXTT9=
EXTT10=
PLAYORDER=
